<svg xmlns="http://www.w3.org/2000/svg" viewBox="0 0 72 72" width="72" height="72" preserveAspectRatio="xMidYMid meet" style="width: 100%; height: 100%; transform: translate3d(0px, 0px, 0px);"><defs><clipPath id="__lottie_element_498"><rect width="72" height="72" x="0" y="0"></rect></clipPath></defs><g clip-path="url(#__lottie_element_498)"><g transform="matrix(1,0,0,1,33,4.184999942779541)" opacity="1" style="display: block;"><g opacity="1" transform="matrix(1,0,0,1,0,0)"><path fill="rgb(189,193,198)" fill-opacity="1" d=" M-12,-5.010000228881836 C-12,-5.010000228881836 12,-5.010000228881836 12,-5.010000228881836 C12,-5.010000228881836 12,17.5 12,17.5 C12,17.5 -12,17.5 -12,17.5 C-12,17.5 -12,-5.010000228881836 -12,-5.010000228881836z"></path></g></g><g transform="matrix(1,0,0,1,36,35.75)" opacity="1" style="display: block;"><g opacity="1" transform="matrix(1,0,0,1,0,0)"><path fill="rgb(95,99,104)" fill-opacity="1" d=" M11,-16 C11,-16 11,-18 11,-18 C11,-19.100000381469727 10.100000381469727,-20 9,-20 C9,-20 -15,-20 -15,-20 C-16.100000381469727,-20 -17,-19.100000381469727 -17,-18 C-17,-18 -17,-10 -17,-10 C-17,-8.899999618530273 -16.100000381469727,-8 -15,-8 C-15,-8 9,-8 9,-8 C10.100000381469727,-8 11,-8.899999618530273 11,-10 C11,-10 11,-12 11,-12 C11,-12 13,-12 13,-12 C13,-12 13,-4 13,-4 C13,-4 -5,-4 -5,-4 C-6.099999904632568,-4 -7,-3.0999999046325684 -7,-2 C-7,-2 -7,18 -7,18 C-7,19.100000381469727 -6.099999904632568,20 -5,20 C-5,20 -1,20 -1,20 C0.10000000149011612,20 1,19.100000381469727 1,18 C1,18 1,0 1,0 C1,0 15,0 15,0 C16.100000381469727,0 17,-0.8999999761581421 17,-2 C17,-2 17,-14 17,-14 C17,-15.100000381469727 16.100000381469727,-16 15,-16 C15,-16 11,-16 11,-16z"></path></g></g></g></svg>