<svg xmlns="http://www.w3.org/2000/svg" viewBox="0 0 144 144" width="144" height="144" preserveAspectRatio="xMidYMid meet" style="width: 100%; height: 100%; transform: translate3d(0px, 0px, 0px);"><defs><clipPath id="__lottie_element_67"><rect width="144" height="144" x="0" y="0"></rect></clipPath></defs><g clip-path="url(#__lottie_element_67)"><g transform="matrix(2,0,0,2,165,71.5)" opacity="1" style="display: block;"><g opacity="1" transform="matrix(1,0,0,1,0,0)"><path fill="rgb(32,33,36)" fill-opacity="1" d=" M14.218000411987305,-27.552000045776367 C14.218000411987305,-27.552000045776367 23.43400001525879,-27.552000045776367 23.43400001525879,-27.552000045776367 C23.43400001525879,-27.552000045776367 42.801998138427734,24 42.801998138427734,24 C42.801998138427734,24 33.874000549316406,24 33.874000549316406,24 C33.874000549316406,24 29.266000747680664,10.824000358581543 29.266000747680664,10.824000358581543 C29.266000747680664,10.824000358581543 8.458000183105469,10.824000358581543 8.458000183105469,10.824000358581543 C8.458000183105469,10.824000358581543 3.7780001163482666,24 3.7780001163482666,24 C3.7780001163482666,24 -5.150000095367432,24 -5.150000095367432,24 C-5.150000095367432,24 14.218000411987305,-27.552000045776367 14.218000411987305,-27.552000045776367z M26.530000686645508,3.3359999656677246 C26.530000686645508,3.3359999656677246 21.058000564575195,-12 21.058000564575195,-12 C21.058000564575195,-12 19.04199981689453,-17.97599983215332 19.04199981689453,-17.97599983215332 C19.04199981689453,-17.97599983215332 18.610000610351562,-17.97599983215332 18.610000610351562,-17.97599983215332 C18.610000610351562,-17.97599983215332 16.5939998626709,-12 16.5939998626709,-12 C16.5939998626709,-12 11.121999740600586,3.3359999656677246 11.121999740600586,3.3359999656677246 C11.121999740600586,3.3359999656677246 26.530000686645508,3.3359999656677246 26.530000686645508,3.3359999656677246z M48.305999755859375,-27.552000045776367 C48.305999755859375,-27.552000045776367 56.369998931884766,-27.552000045776367 56.369998931884766,-27.552000045776367 C56.369998931884766,-27.552000045776367 56.369998931884766,24 56.369998931884766,24 C56.369998931884766,24 48.305999755859375,24 48.305999755859375,24 C48.305999755859375,24 48.305999755859375,-27.552000045776367 48.305999755859375,-27.552000045776367z"></path></g></g><g style="display: none;"><g><path></path></g></g><g style="display: none;"><g><path></path></g></g><g style="display: none;"><g><path></path></g></g><g style="display: none;"><g><path></path></g></g><g style="display: none;"><g><path></path></g></g><g style="display: none;"><g><path></path></g></g><g style="display: none;"><g><path></path></g></g><g style="display: none;"><g><path></path></g></g></g></svg>