<svg xmlns="http://www.w3.org/2000/svg" viewBox="0 0 640 360" width="640" height="360" preserveAspectRatio="xMidYMid meet" style="width: 100%; height: 100%; transform: translate3d(0px, 0px, 0px);"><defs><clipPath id="__lottie_element_26"><rect width="640" height="360" x="0" y="0"></rect></clipPath><clipPath id="__lottie_element_28"><path d="M0,0 L1280,0 L1280,720 L0,720z"></path></clipPath><clipPath id="__lottie_element_32"><path d="M0,0 L93,0 L93,83 L0,83z"></path></clipPath><linearGradient id="__lottie_element_38" spreadMethod="pad" gradientUnits="userSpaceOnUse" x1="-24.993999481201172" y1="-163.27499389648438" x2="23.6299991607666" y2="-163.27499389648438"><stop offset="0%" stop-color="rgb(217,48,37)"></stop><stop offset="50%" stop-color="rgb(225,57,45)"></stop><stop offset="100%" stop-color="rgb(234,67,53)"></stop></linearGradient><linearGradient id="__lottie_element_45" spreadMethod="pad" gradientUnits="userSpaceOnUse" x1="13.145999908447266" y1="-114.31099700927734" x2="-23.22800064086914" y2="-93.31099700927734"><stop offset="0%" stop-color="rgb(30,142,62)"></stop><stop offset="50%" stop-color="rgb(41,155,72)"></stop><stop offset="100%" stop-color="rgb(52,168,83)"></stop></linearGradient><linearGradient id="__lottie_element_49" spreadMethod="pad" gradientUnits="userSpaceOnUse" x1="-18.361000061035156" y1="-107.3239974975586" x2="6.270999908447266" y2="-64.65899658203125"><stop offset="0%" stop-color="rgb(252,201,52)"></stop><stop offset="50%" stop-color="rgb(251,195,28)"></stop><stop offset="100%" stop-color="rgb(251,188,4)"></stop></linearGradient></defs><g clip-path="url(#__lottie_element_26)"><g clip-path="url(#__lottie_element_28)" transform="matrix(0.5,0,0,0.5,0,0)" opacity="1" style="display: block;"><g clip-path="url(#__lottie_element_32)" transform="matrix(1.612478494644165,-5.623380661010742,5.623380661010742,1.612478494644165,-191.35055541992188,659.5693359375)" opacity="1" style="display: block;"><g transform="matrix(1,0,0,1,45.89899826049805,41.39899826049805)" opacity="1" style="display: block;"><g opacity="1" transform="matrix(1,0,0,1,0.10100000351667404,-0.39899998903274536)"><path fill="rgb(255,255,255)" fill-opacity="1" d=" M0,-20.850500106811523 C11.507390975952148,-20.850500106811523 20.850500106811523,-11.507390975952148 20.850500106811523,0 C20.850500106811523,11.507390975952148 11.507390975952148,20.850500106811523 0,20.850500106811523 C-11.507390975952148,20.850500106811523 -20.850500106811523,11.507390975952148 -20.850500106811523,0 C-20.850500106811523,-11.507390975952148 -11.507390975952148,-20.850500106811523 0,-20.850500106811523z"></path></g></g><g transform="matrix(1,0,0,1,61.361000061035156,46.67599868774414)" opacity="1" style="display: block;"><g opacity="1" transform="matrix(1,0,0,1,0,0)"><path fill="url(#__lottie_element_49)" fill-opacity="1" d=" M-1.9119999408721924,0.012000000104308128 C-1.9119999408721924,0.012000000104308128 -14.347999572753906,21.551000595092773 -14.347999572753906,21.551000595092773 C-9.303000450134277,21.555999755859375 -4.3460001945495605,20.229999542236328 0.024000000208616257,17.708999633789062 C4.394000053405762,15.187000274658203 8.022000312805176,11.557999610900879 10.543000221252441,7.188000202178955 C13.064000129699707,2.816999912261963 14.387999534606934,-2.1410000324249268 14.381999969482422,-7.185999870300293 C14.376999855041504,-12.230999946594238 13.041999816894531,-17.18600082397461 10.51099967956543,-21.551000595092773 C10.51099967956543,-21.551000595092773 -14.362000465393066,-21.551000595092773 -14.362000465393066,-21.551000595092773 C-14.362000465393066,-21.551000595092773 -14.381999969482422,-21.538999557495117 -14.381999969482422,-21.538999557495117 C-11.857000350952148,-21.547000885009766 -9.37399959564209,-20.888999938964844 -7.184000015258789,-19.631000518798828 C-4.99399995803833,-18.371999740600586 -3.174999952316284,-16.55900001525879 -1.909999966621399,-14.373000144958496 C-0.6449999809265137,-12.187000274658203 0.020999999716877937,-9.706000328063965 0.019999999552965164,-7.179999828338623 C0.019999999552965164,-4.65500020980835 -0.6470000147819519,-2.1740000247955322 -1.9119999408721924,0.012000000104308128 C-1.9119999408721924,0.012000000104308128 -1.9119999408721924,0.012000000104308128 -1.9119999408721924,0.012000000104308128z"></path></g></g><g transform="matrix(1,0,0,1,38.854000091552734,46.68899917602539)" opacity="1" style="display: block;"><g opacity="1" transform="matrix(1,0,0,1,0,0)"><path fill="url(#__lottie_element_45)" fill-opacity="1" d=" M-4.302000045776367,-0.0010000000474974513 C-4.302000045776367,-0.0010000000474974513 -16.738000869750977,-21.540000915527344 -16.738000869750977,-21.540000915527344 C-19.264999389648438,-17.17300033569336 -20.594999313354492,-12.217000007629395 -20.59600067138672,-7.171999931335449 C-20.597000122070312,-2.127000093460083 -19.26799964904785,2.8299999237060547 -16.743999481201172,7.197999954223633 C-14.218999862670898,11.565999984741211 -10.588000297546387,15.192999839782715 -6.216000080108643,17.709999084472656 C-1.843999981880188,20.22800064086914 3.115000009536743,21.54800033569336 8.15999984741211,21.538999557495117 C8.15999984741211,21.538999557495117 20.59600067138672,-0.0010000000474974513 20.59600067138672,-0.0010000000474974513 C20.59600067138672,-0.0010000000474974513 20.59600067138672,-0.02500000037252903 20.59600067138672,-0.02500000037252903 C19.34000015258789,2.1659998893737793 17.52899932861328,3.986999988555908 15.343999862670898,5.255000114440918 C13.15999984741211,6.521999835968018 10.678999900817871,7.190999984741211 8.154000282287598,7.192999839782715 C5.627999782562256,7.196000099182129 3.1470000743865967,6.5329999923706055 0.9599999785423279,5.269999980926514 C-1.2269999980926514,4.00600004196167 -3.0420000553131104,2.187000036239624 -4.302000045776367,-0.0010000000474974513 C-4.302000045776367,-0.0010000000474974513 -4.302000045776367,-0.0010000000474974513 -4.302000045776367,-0.0010000000474974513z"></path></g></g><g transform="matrix(1,0,0,1,47.000999450683594,39.5)" opacity="1" style="display: block;"><g opacity="1" transform="matrix(1,0,0,1,0,0)"><path fill="rgb(26,115,232)" fill-opacity="1" d=" M-0.0010000000474974513,11.380000114440918 C6.283999919891357,11.380000114440918 11.380999565124512,6.284999847412109 11.380999565124512,0 C11.380999565124512,-6.284999847412109 6.283999919891357,-11.380000114440918 -0.0010000000474974513,-11.380000114440918 C-6.285999774932861,-11.380000114440918 -11.380999565124512,-6.284999847412109 -11.380999565124512,0 C-11.380999565124512,6.284999847412109 -6.285999774932861,11.380000114440918 -0.0010000000474974513,11.380000114440918z"></path></g></g><g transform="matrix(1,0,0,1,46.99399948120117,28.724000930786133)" opacity="1" style="display: block;"><g opacity="1" transform="matrix(1,0,0,1,0,0)"><path fill="url(#__lottie_element_38)" fill-opacity="1" d=" M0.007000000216066837,-3.5999999046325684 C0.007000000216066837,-3.5999999046325684 24.878999710083008,-3.5999999046325684 24.878999710083008,-3.5999999046325684 C22.360000610351562,-7.9720001220703125 18.733999252319336,-11.60200023651123 14.364999771118164,-14.12600040435791 C9.996000289916992,-16.649999618530273 5.039000034332275,-17.976999282836914 -0.006000000052154064,-17.975000381469727 C-5.052000045776367,-17.972999572753906 -10.006999969482422,-16.641000747680664 -14.37399959564209,-14.11299991607666 C-18.740999221801758,-11.586000442504883 -22.36400032043457,-7.951000213623047 -24.878999710083008,-3.5769999027252197 C-24.878999710083008,-3.5769999027252197 -12.442000389099121,17.96299934387207 -12.442000389099121,17.96299934387207 C-12.442000389099121,17.96299934387207 -12.420999526977539,17.975000381469727 -12.420999526977539,17.975000381469727 C-13.690999984741211,15.791999816894531 -14.362000465393066,13.312000274658203 -14.368000030517578,10.78600025177002 C-14.373000144958496,8.26099967956543 -13.711999893188477,5.7779998779296875 -12.451000213623047,3.5899999141693115 C-11.190999984741211,1.4019999504089355 -9.375,-0.41600000858306885 -7.186999797821045,-1.6779999732971191 C-5,-2.940000057220459 -2.5179998874664307,-3.6029999256134033 0.007000000216066837,-3.5999999046325684 C0.007000000216066837,-3.5999999046325684 0.007000000216066837,-3.5999999046325684 0.007000000216066837,-3.5999999046325684z"></path></g></g></g></g></g></svg>