<svg xmlns="http://www.w3.org/2000/svg" viewBox="0 0 72 72" width="72" height="72" preserveAspectRatio="xMidYMid meet" style="width: 100%; height: 100%; transform: translate3d(0px, 0px, 0px);"><defs><clipPath id="__lottie_element_103"><rect width="72" height="72" x="0" y="0"></rect></clipPath><mask id="__lottie_element_104" mask-type="alpha"><g style="display: none;"><g><path stroke-linecap="round" stroke-linejoin="miter" fill-opacity="0" stroke-miterlimit="4"></path></g></g></mask><mask id="__lottie_element_110" mask-type="alpha"><g transform="matrix(1,0,0,1,36,36)" opacity="1" style="display: block;"><g opacity="1" transform="matrix(1,0,0,1,0,0)"><path stroke-linecap="butt" stroke-linejoin="miter" fill-opacity="0" stroke-miterlimit="4" stroke="rgb(255,255,255)" stroke-opacity="1" stroke-width="14" d="M0 0"></path></g></g></mask></defs><g clip-path="url(#__lottie_element_103)"><g mask="url(#__lottie_element_110)" style="display: block;"><g transform="matrix(1,0,0,1,36.000999450683594,36)" opacity="1"><g opacity="1" transform="matrix(1,0,0,1,0,0)"><path fill="rgb(24,128,56)" fill-opacity="1" d=" M16.78499984741211,-6.881999969482422 C16.78499984741211,-6.881999969482422 14.305000305175781,-3.1619999408721924 14.305000305175781,-3.1619999408721924 C15.491000175476074,-0.7960000038146973 16.07200050354004,1.8279999494552612 15.994999885559082,4.473999977111816 C15.918000221252441,7.119999885559082 15.187000274658203,9.704999923706055 13.864999771118164,11.998000144958496 C13.864999771118164,11.998000144958496 -13.854999542236328,11.998000144958496 -13.854999542236328,11.998000144958496 C-15.572999954223633,9.017999649047852 -16.28499984741211,5.565000057220459 -15.885000228881836,2.1489999294281006 C-15.484999656677246,-1.2669999599456787 -13.994999885559082,-4.464000225067139 -11.63599967956543,-6.9670000076293945 C-9.277000427246094,-9.470000267028809 -6.175000190734863,-11.145000457763672 -2.7880001068115234,-11.746000289916992 C0.5989999771118164,-12.347000122070312 4.089000225067139,-11.840999603271484 7.164999961853027,-10.302000045776367 C7.164999961853027,-10.302000045776367 10.885000228881836,-12.781999588012695 10.885000228881836,-12.781999588012695 C6.943999767303467,-15.336000442504883 2.2290000915527344,-16.422000885009766 -2.431999921798706,-15.848999977111816 C-7.0929999351501465,-15.276000022888184 -11.402999877929688,-13.081999778747559 -14.609000205993652,-9.649999618530273 C-17.815000534057617,-6.2179999351501465 -19.711000442504883,-1.7669999599456787 -19.964000701904297,2.921999931335449 C-20.216999053955078,7.611000061035156 -18.812000274658203,12.239999771118164 -15.994999885559082,15.998000144958496 C-15.994999885559082,15.998000144958496 16.0049991607666,15.998000144958496 16.0049991607666,15.998000144958496 C18.45800018310547,12.720999717712402 19.84600067138672,8.770000457763672 19.98200035095215,4.677999973297119 C20.118000030517578,0.5860000252723694 18.9950008392334,-3.4489998817443848 16.764999389648438,-6.881999969482422 C16.764999389648438,-6.881999969482422 16.78499984741211,-6.881999969482422 16.78499984741211,-6.881999969482422z"></path></g></g></g><g mask="url(#__lottie_element_104)" style="display: none;"><g><g><path></path></g></g></g></g></svg>